<svg width="161" height="48" viewBox="0 0 161 48" fill="none" xmlns="http://www.w3.org/2000/svg">
<path d="M118.473 18.6929C115.313 19.0857 112.983 20.88 112.126 23.5581C111.537 25.3792 111.608 27.111 112.349 28.8696C113.224 30.9496 115.107 32.4315 117.607 32.9938C118.33 33.1635 120.196 33.1724 120.946 33.0296C123.847 32.4582 125.873 30.655 126.712 27.9234C126.909 27.2717 126.935 27.0753 126.935 25.9148C126.935 24.7543 126.909 24.5579 126.712 23.9063C125.882 21.2103 123.927 19.4339 121.133 18.8447C120.553 18.7286 118.964 18.6394 118.473 18.6929ZM120.24 22.2369C121.285 22.5137 122.276 23.1921 122.731 23.9866C123.436 25.1828 123.409 26.7629 122.677 27.9055C121.365 29.9676 118.366 30.3068 116.562 28.5929C115.063 27.1646 115.009 24.8971 116.437 23.3528C117.393 22.3351 118.91 21.8977 120.24 22.2369Z" fill="white"/>
<path d="M133.917 18.6929C130.757 19.0857 128.427 20.88 127.57 23.5581C126.981 25.3792 127.052 27.111 127.793 28.8696C128.668 30.9496 130.552 32.4315 133.051 32.9938C133.774 33.1635 135.64 33.1724 136.39 33.0296C139.291 32.4582 141.318 30.655 142.157 27.9234C142.353 27.2717 142.38 27.0753 142.38 25.9148C142.38 24.7543 142.353 24.5579 142.157 23.9063C141.326 21.2103 139.371 19.4339 136.577 18.8447C135.997 18.7286 134.408 18.6394 133.917 18.6929ZM135.694 22.2369C136.747 22.5137 137.729 23.1921 138.184 23.9866C138.889 25.1828 138.863 26.7629 138.131 27.9055C136.818 29.9676 133.819 30.3068 132.016 28.5929C130.516 27.1646 130.462 24.8971 131.891 23.3528C132.837 22.3351 134.355 21.8977 135.694 22.2369Z" fill="white"/>
<path d="M154.717 18.7376C152.878 19.0054 151.494 20.1837 151.048 21.8799C150.619 23.4778 150.923 25.1114 151.78 25.9059C152.288 26.379 152.896 26.6557 154.565 27.1914C156.181 27.7091 156.547 27.9323 156.716 28.4768C156.904 29.1017 156.439 29.8516 155.734 30.048C155.35 30.1551 154.627 30.1551 154.145 30.0391C153.619 29.9141 152.672 29.4499 152.271 29.1017C152.092 28.9321 151.887 28.8071 151.851 28.8071C151.815 28.8071 151.61 29.1107 151.414 29.4856C151.137 30.0123 151.048 30.1283 151.03 29.9855L151.003 29.8069H148.852H146.709V24.3972V18.9875H144.933H143.156V25.9237V32.86H147.075H150.994V32.4761C150.994 32.2708 151.012 32.1012 151.03 32.1012C151.048 32.1012 151.369 32.2529 151.744 32.4225C152.904 32.9671 153.645 33.1278 155.083 33.1278C156.484 33.1278 157.145 33.0028 158.011 32.5832C158.698 32.2529 159.626 31.3335 159.939 30.6907C160.555 29.4052 160.644 27.6734 160.126 26.5754C160.037 26.3701 159.734 25.9684 159.448 25.6916C158.841 25.0846 158.189 24.7543 156.52 24.2187C155.859 24.0134 155.199 23.7634 155.047 23.6742C154.511 23.3439 154.404 22.6208 154.824 22.1655C155.556 21.3799 156.859 21.4514 158.216 22.353L158.484 22.5226L159.207 21.1389C159.591 20.3891 159.912 19.7553 159.894 19.7463C159.814 19.666 158.805 19.2643 158.234 19.0857C157.029 18.7108 155.761 18.5769 154.717 18.7376Z" fill="white"/>
<path d="M54.9141 23.9509V33.0921H58.1456C59.9221 33.0921 61.7789 33.0385 62.2609 32.9849C66.2512 32.494 69.1971 30.0748 70.1434 26.5219C70.4558 25.3435 70.5272 23.2725 70.3041 22.0406C69.8488 19.6481 68.6079 17.7199 66.6976 16.4166C65.8406 15.8274 65.0729 15.5061 63.841 15.1668C62.8769 14.9079 62.7251 14.9079 58.8865 14.8544L54.923 14.8098V23.9509H54.9141ZM61.9663 18.5412C64.4748 19.0768 66.1441 21.1746 66.1441 23.7992C66.1352 25.5399 65.5996 27.0396 64.5998 28.0305C63.6089 29.0303 62.1359 29.5124 60.0827 29.5213H59.1097V23.9598V18.3984H60.1899C60.779 18.3984 61.5735 18.4698 61.9663 18.5412Z" fill="white"/>
<path d="M71.8125 23.9598V33.0921L79.5075 33.0831H87.1936L89.1753 30.2979C90.2734 28.7804 91.1928 27.5306 91.2196 27.5306C91.2642 27.5306 92.1837 28.7804 93.2728 30.3158L95.2635 33.101H97.763C99.1288 33.101 100.254 33.0653 100.254 33.0385C100.254 33.0028 98.7807 30.9496 97.0042 28.4769L93.7548 23.9777L96.8614 19.6392C98.5754 17.2647 100.066 15.2204 100.164 15.1043C100.361 14.9079 100.361 14.9347 100.361 16.7647V18.6215H102.253H104.146V25.8613V33.101H106.404H108.663V25.8613V18.6215L110.868 18.6037L113.064 18.568L111.885 16.7112L110.707 14.8544L102.994 14.8455H95.2724L93.2906 17.6307C92.1926 19.1482 91.2732 20.398 91.2464 20.4159C91.2107 20.4159 90.2912 19.1661 89.2021 17.6307L87.2114 14.8455H79.5254H71.8304V23.9598H71.8125ZM85.3903 19.3893C87.1579 21.8352 88.604 23.8884 88.604 23.9509C88.604 24.0134 87.1579 26.0844 85.3814 28.5483L82.1499 33.0296L82.1142 31.2799L82.0963 29.5302H79.0522H76.0081V27.477V25.4328H78.472H80.9358V23.701V21.9691H78.472H76.0081V20.1838V18.3984H79.0522H82.0963V16.6666C82.0963 15.7114 82.1142 14.9347 82.1409 14.9347C82.1677 14.9347 83.6228 16.9433 85.3903 19.3893Z" fill="white"/>
<path fill-rule="evenodd" clip-rule="evenodd" d="M16.0445 2.70485C13.1879 4.19565 10.8402 5.45434 10.8491 5.50791C10.8491 5.64181 17.7139 9.11438 17.9549 9.10545C18.062 9.10545 18.8654 8.73052 19.7403 8.28417L21.3293 7.47183L23.0611 8.36452L24.7929 9.25721L27.6317 7.98066C31.8987 6.06137 32.3451 5.84713 32.2737 5.78464C32.1844 5.68644 30.649 4.86517 26.489 2.67807C24.4805 1.6247 22.5344 0.580248 22.1595 0.374929C21.7845 0.160683 21.4275 0 21.365 0C21.3025 0 18.9011 1.21406 16.0445 2.70485ZM3.50223 9.20364L0.520646 10.7391V17.4878C0.520646 21.2014 0.556354 24.2366 0.609915 24.2366C0.65455 24.2366 2.11856 23.6028 3.86824 22.8261L7.03729 21.4157V14.3009L8.58164 15.14C9.77785 15.7917 10.9651 16.4344 12.1613 17.0861L14.1967 18.1841L15.0983 17.7735C15.6696 17.5146 16.232 17.2557 16.7944 16.9968C17.2318 16.7915 18.303 16.3095 19.1779 15.9256C20.0527 15.5417 20.8561 15.149 20.9722 15.0597C21.124 14.9437 19.2672 13.9171 14.1074 11.2658C10.2153 9.26613 6.90338 7.64144 6.75163 7.65036C6.59987 7.65929 5.13586 8.35559 3.50223 9.20364ZM32.8004 9.63213C30.7739 10.5516 29.1135 11.3372 29.1135 11.3818C29.1135 11.4264 30.2205 12.087 31.5684 12.8458C32.9253 13.6046 34.0233 14.2652 34.0233 14.3188C34.0233 14.3723 32.8271 14.9526 31.3631 15.6042C29.8991 16.2648 26.2034 17.9342 23.1414 19.3178L12.9023 23.9509C10.3224 25.1114 8.0014 26.1648 7.74251 26.2808C2.48457 28.6643 1.02948 29.3249 0.833088 29.441C0.636696 29.557 0.592061 30.2176 0.556353 33.5473L0.511719 37.5198L3.17194 38.8767L5.83216 40.2336L9.5279 38.5643C11.5543 37.6448 13.2236 36.8503 13.2236 36.7878C13.2236 36.7253 12.8487 36.4843 12.3934 36.2433C11.9382 36.0022 10.9919 35.4666 10.2867 35.056C9.59038 34.6453 8.89409 34.2704 8.74233 34.2169C8.59057 34.1633 8.46559 34.0829 8.46559 34.0205C8.46559 33.9669 10.0903 33.1903 12.081 32.3065C15.9374 30.5836 18.8833 29.2535 25.2125 26.3879C28.0423 25.1114 30.8721 23.8259 33.7109 22.5494C36.2015 21.4246 39.0938 20.1123 40.1383 19.6303L42.0397 18.7554L42.0843 14.7383L42.129 10.7212L39.433 9.34648C37.9512 8.58769 36.6746 7.96281 36.6121 7.96281C36.5407 7.96281 34.8268 8.72159 32.8004 9.63213ZM41.3255 24.1294C40.9238 24.3258 40.1383 24.6918 39.5759 24.9418C39.0135 25.1917 37.9422 25.6738 37.2013 26.013L35.8534 26.629L35.8266 30.1551C35.8087 32.0922 35.7373 33.6723 35.6659 33.6634C35.5052 33.6366 32.9789 32.3422 30.4347 30.9764C28.5958 29.9944 28.4797 29.9498 28.0512 30.164C27.8013 30.289 26.3105 30.9585 24.7393 31.6459C23.1682 32.3422 21.8292 32.9492 21.7667 33.0117C21.7042 33.0653 24.8643 34.7792 28.8011 36.8235L35.9426 40.5371L38.9956 38.957C40.6739 38.0911 42.1022 37.2966 42.1647 37.1984C42.3164 36.9753 42.2986 23.7456 42.1557 23.7634C42.0933 23.7724 41.7183 23.933 41.3255 24.1294ZM24.418 39.6533C23.8913 39.8765 23.3557 40.1086 22.829 40.3407C21.2311 41.0281 21.5435 41.0549 19.6421 40.1086C18.3745 39.4748 17.8299 39.2873 17.5889 39.3766C17.4104 39.448 15.8839 40.1354 14.1877 40.9031C12.5006 41.6708 11.0544 42.3046 10.983 42.3046C10.2688 42.3046 11.4561 43.0099 16.0088 45.3041L21.3471 48L23.5967 46.8931C24.8286 46.286 27.3282 45.063 29.1314 44.1793C30.9436 43.2955 32.3986 42.5546 32.3719 42.5189C32.3451 42.4921 30.8275 41.7155 28.9975 40.7871L25.6767 39.1088L24.418 39.6533Z" fill="white"/>
</svg>
