<svg width="193" height="48" viewBox="0 0 193 48" fill="none" xmlns="http://www.w3.org/2000/svg">
<g clip-path="url(#clip0_2874_713)">
<path fill-rule="evenodd" clip-rule="evenodd" d="M1.39436 0.941434C6.19032 6.82098 11.4562 14.2075 12.3079 15.4022C12.3533 15.4659 12.3862 15.512 12.4057 15.5393C12.8598 16.1732 13.2346 16.6444 13.5192 17.0022C14.1511 17.7966 14.3386 18.0324 13.9616 18.2489C13.6575 18.4235 13.3437 18.4811 13.0307 18.4811C12.6766 18.4811 12.2776 18.3088 11.9871 18.0305C11.7818 17.8338 10.3769 15.7728 8.46382 12.7745C7.00006 10.4803 5.77506 8.57718 5.74164 8.54532C5.66438 8.47162 5.6657 8.47412 8.31458 13.2614C9.97784 16.2675 11.1156 18.4889 11.1156 18.6311C11.1156 18.9201 11.0375 19.0721 10.6844 19.4699C10.0959 20.1332 9.83274 20.8784 9.64282 22.4206C9.4299 24.1494 8.83118 25.3708 7.17194 27.4608C6.20068 28.6844 6.04176 28.9086 5.79668 29.4018C5.488 30.0228 5.4031 30.3706 5.3687 31.1548C5.33234 31.984 5.40316 32.5196 5.65394 33.3122C5.8735 34.0062 6.10266 34.4646 6.68852 35.3812C7.19412 36.172 7.48524 36.7598 7.48524 36.9898C7.48524 37.1728 7.51982 37.173 8.30328 36.9944C10.1782 36.5666 11.7006 35.8146 12.5569 34.8928C13.0868 34.3222 13.2112 34.0072 13.2152 33.2254C13.2179 32.714 13.2001 32.607 13.0632 32.3128C12.8404 31.8338 12.4349 31.4358 11.541 30.8186C10.3698 30.0098 9.86956 29.3588 9.73138 28.4634C9.61804 27.7288 9.74954 27.2104 10.3975 25.8388C11.0681 24.419 11.2343 23.814 11.3467 22.3828C11.4193 21.4582 11.5199 21.0936 11.7829 20.801C12.0572 20.4958 12.3041 20.3924 12.9829 20.2986C14.0896 20.146 14.7942 19.8568 15.3735 19.3176C15.876 18.8499 16.0862 18.3993 16.1185 17.7208L16.143 17.2066L15.8622 16.8759C14.8453 15.6783 0.713358 0 0.650778 0C0.637409 0 0.972036 0.423674 1.39436 0.941434ZM8.05608 32.093C8.286 31.6816 8.16384 31.153 7.77924 30.8946C7.41586 30.6506 6.85138 30.7656 6.85138 31.0836C6.85138 31.1806 6.9045 31.2512 7.02426 31.3136C7.22588 31.4184 7.24052 31.5362 7.08188 31.777C6.92122 32.021 6.93418 32.2354 7.11846 32.381C7.41546 32.616 7.83588 32.4868 8.05608 32.093ZM14.9764 9.6649C14.5227 9.59382 14.5036 9.58548 14.7171 9.55234C15.1262 9.48878 16.0923 9.5754 16.758 9.7353C18.3122 10.1084 19.7264 11.0644 21.236 12.7621L21.637 13.2131L22.2108 13.1199C24.6278 12.7276 27.0866 13.0394 29.1432 13.999C29.709 14.263 30.601 14.7886 30.7124 14.9236C30.7478 14.9666 30.8132 15.2437 30.8572 15.5393C31.01 16.5621 30.9336 17.3461 30.6238 17.9316C30.4554 18.2503 30.446 18.3512 30.5592 18.6239C30.6496 18.8415 30.9018 19.0026 31.1516 19.0022C31.6626 19.0015 32.2126 18.1671 32.4676 17.0059L32.5688 16.5447L32.7694 16.7742C33.8694 18.0332 34.7336 19.7501 34.882 20.9722L34.9206 21.2908L34.7358 21.0012C34.4174 20.5028 34.0978 20.1634 33.6882 19.8897C32.9502 19.3964 32.1696 19.2285 30.1028 19.1185C28.236 19.0192 27.1796 18.8581 26.132 18.513C24.3494 17.9261 23.451 17.1443 21.3336 14.3384C20.3932 13.0921 19.8119 12.4026 19.2337 11.8473C17.9199 10.5855 16.6289 9.92382 14.9764 9.6649ZM31.1334 12.4475C31.1804 11.6124 31.2926 11.0616 31.518 10.5585C31.6072 10.3594 31.6908 10.1964 31.7036 10.1964C31.7166 10.1964 31.6778 10.3434 31.6174 10.523C31.4536 11.0112 31.4266 11.679 31.5396 12.4559C31.6828 13.4416 31.7644 13.5839 32.7958 14.6487C33.2796 15.1482 33.8424 15.7781 34.0464 16.0485L34.4174 16.5403L34.0464 16.1888C33.5928 15.7591 32.5496 14.9209 32.3192 14.8011C32.1646 14.7208 32.1416 14.7222 32.0464 14.818C31.9586 14.9063 31.94 15.0389 31.9278 15.6661C31.9088 16.6437 31.777 17.2711 31.4586 17.8985C31.2864 18.2378 31.2592 18.1654 31.415 17.7824C31.5314 17.4964 31.5432 17.3707 31.5424 16.4244C31.5406 14.523 31.317 14.0659 30.0064 13.2829C29.6746 13.0845 29.1274 12.7985 28.7908 12.6471C28.4544 12.4958 28.187 12.364 28.1966 12.3542C28.2338 12.3168 29.512 12.6937 30.0264 12.8935C30.7916 13.1908 30.9178 13.2294 31.0108 13.1935C31.073 13.1695 31.1032 12.9862 31.1334 12.4475ZM14.4902 10.9878C14.3668 12.4558 14.9366 14.4195 15.8576 15.7002C16.5716 16.693 17.6783 17.4645 18.4954 17.5391C19.0304 17.5878 19.1912 17.4187 18.9491 17.0617C18.6131 16.566 18.1998 15.8028 18.0905 15.476C18.0225 15.273 17.8749 14.6734 17.7624 14.1435C17.3782 12.3345 17.0006 11.63 16.1283 11.095C15.8104 10.8999 15.1316 10.6447 14.738 10.5722L14.5283 10.5336L14.4902 10.9878ZM30.0164 25.2322C25.7122 23.4818 24.1962 21.9624 24.1962 19.3987C24.1962 19.0215 24.2092 18.7128 24.2248 18.7128C24.2406 18.7128 24.407 18.8373 24.5948 18.9895C25.4676 19.6966 26.445 19.9986 29.1508 20.3972C30.7428 20.632 31.6388 20.8214 32.4654 21.0984C35.0924 21.9784 36.7178 23.7642 37.1054 26.1968C37.218 26.9036 37.152 28.229 36.9694 28.9276C36.8252 29.4794 36.3852 30.4738 36.2686 30.512C36.2362 30.5226 36.2044 30.3974 36.1962 30.227C36.152 29.3136 35.695 28.4244 34.9276 27.7582C34.055 27.0008 32.8826 26.398 30.0164 25.2322ZM26.7868 25.0396C26.8472 25.2214 26.9408 25.6352 26.9946 25.9594C27.3394 28.0318 26.2624 29.7062 24.1674 30.355C23.9456 30.4236 23.072 30.5964 22.226 30.7386C20.5135 31.0266 19.7491 31.2306 18.9813 31.6042C18.4367 31.8692 17.7775 32.266 17.8166 32.3054C17.8293 32.3182 17.9536 32.2882 18.0928 32.2388C19.0611 31.8954 20.1387 31.7176 21.776 31.6316C22.4258 31.5976 23.1648 31.5432 23.4184 31.511C24.877 31.3254 25.888 30.8778 26.6742 30.0696C27.1116 29.6198 27.3724 29.2008 27.5826 28.61C27.7158 28.2352 27.7338 28.096 27.7348 27.432C27.736 26.7554 27.7198 26.6316 27.5754 26.2154C27.3864 25.6698 27.1634 25.2604 26.881 24.9402L26.677 24.709L26.7868 25.0396ZM28.9678 29.4988C28.3958 28.257 28.2646 27.0582 28.5778 25.9402C28.6114 25.8206 28.6652 25.7228 28.6978 25.7228C28.7302 25.7228 28.865 25.7966 28.9976 25.8866C29.261 26.0658 29.7896 26.3676 31.1976 27.143C32.9548 28.1106 33.9566 28.8598 34.6378 29.716C35.2344 30.4656 35.6036 31.3194 35.7812 32.3606C35.882 32.9504 35.823 34.3696 35.6732 34.9634C35.2008 36.836 34.1028 38.3068 32.5368 39.1652C32.3074 39.2908 32.1014 39.394 32.079 39.3946C32.0568 39.395 32.1404 39.1804 32.2648 38.9174C32.7916 37.805 32.8516 36.723 32.4534 35.5188C32.2094 34.7814 31.7122 33.8816 30.7082 32.3608C29.541 30.5928 29.2548 30.1222 28.9678 29.4988ZM18.1959 33.5716C16.3856 33.8686 14.3983 34.8362 12.801 36.1984L12.3255 36.604L12.7434 36.67C14.9242 37.0138 15.5114 37.3188 17.0241 38.8928C17.8947 39.7984 18.1887 40 18.9107 40.1862C19.9712 40.4596 21.0166 39.9572 21.3752 39.0016C21.5354 38.5746 21.514 37.8676 21.3302 37.5126C20.893 36.6672 19.6192 36.394 19.0033 37.0132C18.4903 37.529 18.6397 38.306 19.2778 38.4396C19.4239 38.4704 19.4197 38.4638 19.2406 38.382C18.9613 38.2544 18.84 38.0776 18.8385 37.7962C18.8349 37.1364 19.5824 36.766 20.2778 37.0828C20.787 37.315 20.9892 37.6182 20.9892 38.1498C20.9892 38.9684 20.2994 39.5852 19.4967 39.4844C19.0677 39.4304 18.5429 39.1532 18.2616 38.832C17.5536 38.0234 17.8294 36.7474 18.8179 36.2578C19.5704 35.8852 20.5707 35.977 21.3464 36.49C22.2376 37.0796 22.6166 37.6184 23.3842 39.3868C23.6342 39.9626 23.9558 40.6108 24.0988 40.8272C24.826 41.9266 25.6972 42.4658 26.7466 42.4658C27.3254 42.4658 27.7608 42.359 28.3086 42.0828C28.7156 41.8774 29.2926 41.4872 29.251 41.4454C29.2392 41.4336 29.0704 41.4866 28.8758 41.5632C27.73 42.0146 26.5652 41.9836 25.8888 41.4834C25.4628 41.1686 25.1192 40.5414 24.9426 39.757C24.912 39.6212 24.8112 39.0216 24.7184 38.4244C24.4832 36.9108 24.2574 36.2304 23.7308 35.4496C23.192 34.6508 22.1562 33.9804 20.9982 33.681C20.2757 33.4942 18.976 33.4434 18.1959 33.5716ZM15.6605 21.869C15.8168 21.2858 16.3219 20.7296 16.8414 20.5684C17.1718 20.466 17.8546 20.5314 18.1757 20.6962C18.7979 21.0158 19.2496 21.7436 19.1516 22.269C19.0321 22.9096 18.0035 23.4222 16.8204 23.4306C16.2161 23.4348 15.9929 23.3528 15.7621 23.0416C15.6193 22.8488 15.5651 22.2248 15.6605 21.869ZM18.0168 20.9246C18.3271 21.116 18.4069 21.399 18.2245 21.6608C18.0988 21.8412 17.7097 22.0126 17.4254 22.0126C16.9983 22.0126 16.5323 21.7062 16.5323 21.4256C16.5323 20.8618 17.4259 20.56 18.0168 20.9246ZM110.757 22.539C109.792 19.3285 111.383 16.6655 114.78 15.8097C115.754 15.5642 120.164 15.675 120.92 15.9641C121.198 16.07 121.318 16.4766 121.321 17.3122C121.323 17.9703 121.395 18.7696 121.48 19.0884C121.61 19.5715 121.534 19.6666 121.024 19.6588C120.563 19.6516 120.284 19.3814 119.895 18.5638C119.273 17.2579 118.52 16.8425 116.766 16.8376C114.526 16.8312 112.887 18.3393 113.153 20.1616C113.327 21.3474 114.512 22.5142 117.171 24.1182C119.701 25.644 121.177 26.8988 121.765 28.023C123.339 31.0286 121.995 34.245 118.49 35.8656C116.691 36.6974 113.676 36.7834 111.556 36.0634L110.198 35.6022V33.433C110.198 31.4684 110.245 31.2634 110.693 31.2634C111.067 31.2634 111.229 31.511 111.36 32.2866C111.688 34.2152 113.153 35.386 115.241 35.386C117.285 35.386 118.715 34.2688 119.262 32.243C119.496 31.38 119.455 31.0618 118.993 30.1098C118.438 28.9684 117.484 28.211 114.242 26.3406C112.443 25.3026 111.17 23.9148 110.757 22.539ZM47.2008 17.0914C46.7584 17.0914 46.5858 16.9469 46.5858 16.5761C46.5858 16.0852 46.7584 16.0607 50.225 16.0607C53.4426 16.0607 53.8544 16.1092 53.7806 16.4784C53.7344 16.7082 53.2898 17.027 52.792 17.187L51.8868 17.4779L51.8096 24.0486C51.7578 28.433 51.8306 30.9622 52.028 31.6498C52.615 33.6948 54.4056 34.8708 56.932 34.8708C58.6908 34.8708 59.7182 34.4596 61.009 33.2384C62.3974 31.9256 62.6188 30.6782 62.6144 24.195C62.6102 17.8001 62.4988 17.2723 61.1254 17.1396C60.5004 17.079 60.291 16.9334 60.291 16.5598C60.291 16.0939 60.4972 16.0607 63.394 16.0607C66.3246 16.0607 66.497 16.0893 66.497 16.5761C66.497 16.8935 66.3232 17.0929 66.0444 17.0953C64.8468 17.1058 64.8248 17.2198 64.6636 24.232C64.4964 31.514 64.3402 32.3762 62.8644 34.16C62.4388 34.6746 61.4238 35.4218 60.609 35.8206C59.2812 36.4704 58.8588 36.545 56.5414 36.5408C54.4052 36.5364 53.7308 36.4332 52.6626 35.947C51.1034 35.2372 50.0894 34.3186 49.3418 32.9382C48.82 31.9746 48.7754 31.4532 48.6546 24.9246C48.5162 17.4517 48.4492 17.0914 47.2008 17.0914ZM71.398 17.0914C70.8068 17.0914 70.6344 16.9749 70.6344 16.5761C70.6344 16.0929 70.7996 16.062 73.2848 16.0819L75.9354 16.103L77.2036 17.5635C77.9006 18.3666 80.1734 20.8792 82.2536 23.1466C84.334 25.4142 86.7224 28.052 87.561 29.0086C88.3998 29.9654 89.1892 30.748 89.3154 30.748C89.445 30.748 89.5096 28.0456 89.4634 24.5412L89.3818 18.3344L88.6562 17.7129C88.2572 17.371 87.6466 17.0914 87.2988 17.0914C86.8362 17.0914 86.6668 16.9512 86.6668 16.5688C86.6668 16.0656 86.7988 16.0489 90.2222 16.1179C93.1332 16.1767 93.7778 16.2578 93.7778 16.5655C93.7778 16.7848 93.4178 17.0149 92.9134 17.1177C92.4382 17.2146 91.9144 17.4279 91.7498 17.5918C91.5374 17.8034 91.4292 20.5386 91.3766 27.0244L91.3024 36.159H90.553C89.9078 36.159 89.1398 35.433 85.0338 30.9412C82.4104 28.0712 79.3482 24.6604 78.229 23.3616C77.1096 22.0626 76.1066 20.99 76 20.9782C75.6998 20.9446 75.7724 32.5498 76.0794 33.6514C76.3188 34.5098 76.4834 34.6576 77.5004 34.9288C78.3194 35.147 78.6506 35.3684 78.6506 35.6972C78.6506 36.1194 78.3384 36.159 75.0304 36.159C71.663 36.159 71.4102 36.1254 71.4102 35.676C71.4102 35.347 71.6538 35.1444 72.1742 35.0406C73.7532 34.726 73.858 34.2266 73.9466 26.5926C73.9962 22.317 73.9234 19.3254 73.754 18.699C73.4564 17.5975 72.7148 17.0914 71.398 17.0914ZM98.5124 17.0914C97.9584 17.0914 97.786 16.969 97.786 16.5761C97.786 16.0837 97.9584 16.0607 101.665 16.0607C105.371 16.0607 105.544 16.0837 105.544 16.5761C105.544 16.9541 105.371 17.0914 104.897 17.0914C104.542 17.0914 104.013 17.328 103.723 17.6171C103.211 18.1275 103.198 18.3813 103.271 26.2702C103.342 33.9712 103.372 34.4168 103.847 34.763C104.124 34.964 104.618 35.1284 104.946 35.1284C105.371 35.1284 105.544 35.277 105.544 35.6438C105.544 36.1362 105.371 36.159 101.665 36.159C98.0466 36.159 97.786 36.1266 97.786 35.6768C97.786 35.314 98.0398 35.1538 98.8104 35.031C100.341 34.7872 100.419 34.288 100.323 25.3802C100.247 18.2466 100.214 17.8018 99.7406 17.4568C99.4644 17.2558 98.9118 17.0914 98.5124 17.0914ZM125.569 17.0914C125.215 17.0914 124.946 16.8953 124.862 16.5761C124.732 16.0777 124.855 16.0607 128.582 16.0607C132.264 16.0607 132.436 16.0837 132.436 16.5761C132.436 16.9721 132.264 17.0914 131.692 17.0914C130.064 17.0914 130.101 17.3862 132.565 24.1248C133.819 27.555 135.036 30.8134 135.27 31.3656L135.696 32.3698L137.671 27.114C139.996 20.9274 140.298 19.7833 139.903 18.655C139.628 17.8685 138.558 17.0914 137.75 17.0914C137.522 17.0914 137.35 16.8698 137.35 16.5761C137.35 16.0829 137.522 16.0607 141.358 16.0607C145.193 16.0607 145.366 16.0829 145.366 16.5761C145.366 16.9427 145.193 17.0914 144.769 17.0914C143.682 17.0914 143.202 17.6691 143.358 18.7915C143.519 19.9469 147.967 32.3648 148.153 32.179C148.457 31.8768 153.382 18.5089 153.382 17.9878C153.382 17.3635 152.944 17.0914 151.939 17.0914C151.486 17.0914 151.313 16.9494 151.313 16.5761C151.313 16.0893 151.486 16.0607 154.416 16.0607C157.048 16.0607 157.519 16.1216 157.519 16.4606C157.519 16.6807 157.197 16.9726 156.803 17.1094C155.916 17.4174 155.694 17.7688 154.582 20.6158C154.094 21.866 152.565 25.7788 151.186 29.3104C149.806 32.8424 148.618 35.8862 148.545 36.0744C148.473 36.2628 148.045 36.4168 147.595 36.4168H146.776L144.919 31.5854C143.897 28.9284 142.69 25.7804 142.237 24.59C141.46 22.5502 141.395 22.4616 141.102 23.0438C140.932 23.384 139.704 26.5376 138.375 30.052L135.957 36.442L135.055 36.365L134.153 36.288L130.712 27.2896C128.79 22.2622 127.022 18.0262 126.706 17.6913C126.395 17.3612 125.883 17.0914 125.569 17.0914ZM177.274 17.2007C177.231 17.1028 177.231 16.751 177.231 16.751C177.231 16.751 177.221 16.6242 177.274 16.5565C177.327 16.489 177.346 16.4872 177.536 16.4691L177.538 16.469C178.236 16.4026 179.637 16.2908 180.806 16.2398C180.913 16.2351 181.032 16.2297 181.161 16.2239L181.164 16.2237L181.166 16.2237L181.167 16.2236C182.453 16.1652 184.755 16.0872 186.338 16.1662C189.374 16.3179 191.533 17.7855 192.269 20.2106C193.005 22.6356 192.616 24.912 191.613 26.361C190.61 27.81 188.923 29.0576 186.119 28.9764C183.805 28.9094 183.186 28.476 182.691 28.1298C182.586 28.0566 182.487 27.9872 182.379 27.9262V31.0188C182.403 33.128 182.421 34.141 182.584 34.516C182.804 35.0208 183.302 35.3318 184.271 35.5702C184.271 35.5702 184.709 35.673 184.823 35.7826C184.936 35.8922 184.936 36.1356 184.936 36.1356C184.936 36.1356 184.959 36.3632 184.868 36.4792C184.777 36.5952 184.602 36.572 184.602 36.572L180.31 36.5374L177.722 36.5306C177.722 36.5306 177.45 36.5826 177.348 36.4734C177.247 36.364 177.256 36.1362 177.256 36.1362C177.256 36.1362 177.278 35.8908 177.397 35.781C177.516 35.671 177.958 35.5482 177.958 35.5482C178.956 35.268 179.389 34.9716 179.615 34.4132C179.797 33.963 179.798 33.1282 179.796 26.3156C179.795 19.855 179.785 18.6498 179.637 18.3032C179.418 17.7902 178.869 17.6542 178.087 17.4607L178.087 17.4606C177.932 17.4222 177.768 17.3816 177.595 17.3353C177.595 17.3353 177.317 17.2986 177.274 17.2007ZM189.771 22.4724C189.771 23.5318 189.752 25.1904 188.625 26.2506C187.497 27.3108 185.276 27.601 183.769 27.3058C183.294 27.2128 183.022 27.0694 182.813 26.9588L182.792 26.9478L182.406 26.7446L182.383 23.0224C182.369 20.6902 182.394 19.1707 182.449 18.9535C182.499 17.7238 184.313 17.5708 185.199 17.6163C188.991 17.6163 189.66 20.8112 189.771 22.4724ZM165.367 16.205C165.367 16.205 165.182 16.2761 164.901 16.3826L163.888 16.9055L163.159 18.7257C162.758 19.7267 162.025 21.5644 161.529 22.8094C160.627 25.077 160.031 26.5668 159.404 28.1218C159.219 28.5792 158.662 29.972 158.166 31.217C157.67 32.4618 157.174 33.6466 157.064 33.8498C157.045 33.8836 157.026 33.92 157.006 33.9584C156.728 34.48 156.246 35.386 155.395 35.523C155.395 35.523 154.927 35.569 154.753 35.7402C154.58 35.9116 154.597 36.0516 154.597 36.0516V36.2674C154.597 36.2674 154.612 36.372 154.711 36.424C154.809 36.4762 154.942 36.4792 154.942 36.4792L158.056 36.4438H161.275C161.275 36.4438 161.502 36.4704 161.59 36.3976C161.678 36.3248 161.702 36.2168 161.702 36.2168V35.9896C161.702 35.9896 161.657 35.7432 161.53 35.647C161.403 35.551 160.925 35.4852 160.925 35.4852C159.636 35.3158 159.414 34.3412 159.573 33.4648C159.652 33.0342 160.169 31.4414 160.753 29.8378L160.954 29.2836L164.327 29.2578C166.182 29.2436 167.784 29.2532 167.886 29.2792C168.032 29.3162 168.237 29.7324 168.839 31.2148C169.751 33.4608 169.824 33.7344 169.622 34.1546C169.61 34.1802 169.597 34.2084 169.582 34.2388C169.393 34.6452 169.025 35.4348 168.098 35.5152C168.098 35.5152 167.607 35.5322 167.484 35.6792C167.362 35.8264 167.389 35.9956 167.389 35.9956V36.2204C167.389 36.2204 167.421 36.3522 167.484 36.4044C167.548 36.4566 167.654 36.4434 167.654 36.4434L170.716 36.4214L175.019 36.4212C175.019 36.4212 175.188 36.4392 175.234 36.3744C175.28 36.3094 175.289 36.233 175.289 36.233V35.9344C175.289 35.9344 175.271 35.7756 175.188 35.688C175.105 35.6006 174.547 35.5082 174.547 35.5082C173.834 35.3932 173.479 34.8048 173.215 34.3666C173.147 34.2548 173.086 34.1528 173.026 34.071C172.903 33.904 172.466 32.9888 172.123 32.1086C171.78 31.2284 171.007 29.24 170.405 27.6902C169.802 26.1404 168.962 23.9784 168.537 22.886C168.112 21.7934 167.304 19.7146 166.742 18.2664C166.65 18.0287 166.567 17.8152 166.493 17.6241L166.493 17.6232C166.116 16.6506 165.964 16.2582 165.922 16.205C165.787 16.0326 165.367 16.205 165.367 16.205ZM165.166 22.1232C165.031 21.793 164.791 21.2006 164.635 20.8068C164.351 20.091 164.243 19.9261 164.155 20.074C164.13 20.1172 163.951 20.6064 163.758 21.1612C162.51 24.7532 161.945 26.3706 161.832 26.6754C161.76 26.867 161.702 27.0644 161.702 27.1142C161.702 27.1714 162.717 27.2048 164.457 27.2048C165.971 27.2048 167.211 27.186 167.211 27.163C167.211 27.14 167.076 26.7972 166.911 26.4008C166.745 26.0044 166.341 25.015 166.012 24.202C165.683 23.389 165.302 22.4536 165.166 22.1232Z" fill="white"/>
</g>
<defs>
<clipPath id="clip0_2874_713">
<rect width="192.2" height="48" fill="white" transform="translate(0.642578)"/>
</clipPath>
</defs>
</svg>
